<?xml version="1.0" encoding="UTF-8"?>
<svg version="1.1" xmlns="http://www.w3.org/2000/svg" width="316" height="276">
<path d="M0 0 C3.84893854 1.28297951 4.27343891 2.68437738 6.3125 6.125 C11.00090077 14.18658065 11.00090077 14.18658065 18 20 C18 20.66 18 21.32 18 22 C18.515625 22.226875 19.03125 22.45375 19.5625 22.6875 C22 24 22 24 25 26.25 C28.98277223 29.14426033 33.25488588 31.21135768 37.6796875 33.34765625 C41.06941055 35.03454196 44.33038295 36.88505162 47.625 38.75 C54.41100727 42.46156371 61.48094348 45.33434457 68.6875 48.125 C69.70086426 48.52041992 70.71422852 48.91583984 71.75830078 49.32324219 C89.31010478 55.96920387 107.41888192 60.4678414 125.67626953 64.67993164 C141.93032492 68.44560797 156.248277 71.83049472 166.875 85.6875 C170.68492871 90.23483426 175.57952916 91.87868492 181 94 C182.59158797 94.63561275 184.1826965 95.27242675 185.7734375 95.91015625 C188.39020892 96.95770464 191.00772825 98.00306015 193.62841797 99.04077148 C199.84667643 101.50838116 205.96024946 104.11865112 212 107 C211.75117493 108.88874817 211.75117493 108.88874817 211 111 C209.26799011 112.02787781 209.26799011 112.02787781 206.98120117 112.7800293 C206.12487595 113.07100998 205.26855072 113.36199066 204.38627625 113.66178894 C203.44798477 113.96289078 202.5096933 114.26399261 201.54296875 114.57421875 C200.5707991 114.90235062 199.59862946 115.23048248 198.59700012 115.56855774 C195.4654525 116.62375466 192.32734058 117.65726616 189.1875 118.6875 C168.91760147 125.38201274 149.70355568 133.14549925 130.921875 143.328125 C130.12587891 143.75931641 129.32988281 144.19050781 128.50976562 144.63476562 C127.68154297 145.08529297 126.85332031 145.53582031 126 146 C125.10990234 146.48404297 124.21980469 146.96808594 123.30273438 147.46679688 C120.49253204 148.99694909 117.68356429 150.52934348 114.875 152.0625 C113.94244385 152.57127686 113.0098877 153.08005371 112.04907227 153.60424805 C111.13182373 154.10480713 110.2145752 154.60536621 109.26953125 155.12109375 C108.37443848 155.6094873 107.4793457 156.09788086 106.55712891 156.60107422 C104.95092077 157.47978079 103.34619693 158.36121169 101.74365234 159.24658203 C85.75719982 168.07525326 68.81171699 176.61600155 51 181 C49.89978516 181.29003906 49.89978516 181.29003906 48.77734375 181.5859375 C44.58346724 182.21118491 40.42059745 182.10353674 36.1875 182.0625 C35.30384766 182.05798828 34.42019531 182.05347656 33.50976562 182.04882812 C31.33981441 182.03709866 29.16989828 182.01916495 27 182 C27.33 181.01 27.66 180.02 28 179 C30.30859375 178 30.30859375 178 33.4375 177 C40.30615361 174.51190374 46.16495766 171.04912354 52.32592773 167.15478516 C56.80119649 164.32905 61.27521744 161.75967799 66 159.375 C73.48566105 155.42818758 81.34359102 150.40072483 84 142 C84.37593066 140.0075675 84.71979545 138.0081326 85 136 C84.18402344 136.15855469 83.36804688 136.31710938 82.52734375 136.48046875 C61.14562598 139.629714 40.134377 133.33404404 22.40625 121.26171875 C21.9421875 120.84535156 21.478125 120.42898437 21 120 C21 119.34 21 118.68 21 118 C20.42121094 117.7628125 19.84242187 117.525625 19.24609375 117.28125 C12.04143336 113.17146111 6.78610277 103.61273151 4 96 C3.6875 92.375 3.6875 92.375 4 90 C5.42505859 90.61681641 5.42505859 90.61681641 6.87890625 91.24609375 C11.54178887 93.24279707 16.23508464 95.16107323 20.9375 97.0625 C21.79279297 97.41376953 22.64808594 97.76503906 23.52929688 98.12695312 C40.98355658 105.16990002 55.91006208 104.96523155 73.48046875 98.31640625 C76.31730549 97.20540498 76.31730549 97.20540498 77 94 C72.64385108 92.42805635 68.43860296 91.5057559 63.875 90.75 C53.00235261 88.72730665 42.96685715 83.80591054 35 76 C35 75.34 35 74.68 35 74 C34.01 73.67 33.02 73.34 32 73 C32 72.34 32 71.68 32 71 C31.10861328 70.63261719 31.10861328 70.63261719 30.19921875 70.2578125 C18.15710961 63.37049608 10.55991397 40.54345266 6 28 C5.69449219 27.19304687 5.38898437 26.38609375 5.07421875 25.5546875 C2.18994658 17.53788999 -0.33769068 8.55483052 0 0 Z M136 85 C137.48917357 89.91427279 140.44186662 93.40319126 144 97 C146.80903621 98.4045181 149.18114508 98.13209254 152.3125 98.125 C153.44300781 98.12757813 154.57351562 98.13015625 155.73828125 98.1328125 C158.62153596 98.01541051 161.1990855 97.66212988 164 97 C164 96.34 164 95.68 164 95 C160.08820439 93.32173077 156.16982376 91.65942196 152.25 90 C151.13882813 89.52304688 150.02765625 89.04609375 148.8828125 88.5546875 C147.81289062 88.10351562 146.74296875 87.65234375 145.640625 87.1875 C144.65610352 86.76855469 143.67158203 86.34960938 142.65722656 85.91796875 C139.83842781 84.78231607 139.83842781 84.78231607 136 85 Z " fill="#FAE140" transform="translate(57,53)"/>
<path d="M0 0 C0.433125 0.474375 0.86625 0.94875 1.3125 1.4375 C3.02309613 3.23686957 3.02309613 3.23686957 6 4 C6.33 4.99 6.66 5.98 7 7 C7.33 6.67 7.66 6.34 8 6 C10.4375 5.75 10.4375 5.75 13 6 C13.99 7.485 13.99 7.485 15 9 C17.77678276 9.76802165 17.77678276 9.76802165 20.9375 10.125 C24.12746563 10.56686644 26.94079789 10.98026596 30 12 C30 12.66 30 13.32 30 14 C45.69675661 15.52093299 61.18551356 16.21067439 76.94165039 16.01367188 C78.19582764 16.00013672 79.45000488 15.98660156 80.7421875 15.97265625 C81.8544873 15.95468994 82.96678711 15.93672363 84.11279297 15.91821289 C86.61171095 15.98900078 88.62561019 16.26462373 91 17 C91.495 19.475 91.495 19.475 92 22 C91.45730469 22.34289062 90.91460937 22.68578125 90.35546875 23.0390625 C83.87723363 27.77809576 82.67182385 32.41075579 81.375 40.18359375 C81.189375 41.57771484 81.189375 41.57771484 81 43 C85.455 42.505 85.455 42.505 90 42 C89.67 42.99 89.34 43.98 89 45 C89.87011719 44.51080078 89.87011719 44.51080078 90.7578125 44.01171875 C95.12660294 41.56779142 99.52213648 39.23893176 104 37 C104.804375 36.505 105.60875 36.01 106.4375 35.5 C110.51338237 33.11411764 114.76670312 31.40319321 119.25 29.9375 C122.16587399 29.07470233 122.16587399 29.07470233 125 27 C127.31715943 26.39285967 129.6539983 25.85886285 132 25.375 C133.2375 25.11460937 134.475 24.85421875 135.75 24.5859375 C139 24 139 24 142 24 C142 23.34 142 22.68 142 22 C148.11404596 20.14256832 153.58518742 18.57234583 160 19 C160 19.99 160 20.98 160 22 C167.47835477 20.77048326 174.7216477 19.11170763 182 17 C181 19 181 19 179.0925293 19.81860352 C178.26148682 20.08600342 177.43044434 20.35340332 176.57421875 20.62890625 C175.64254883 20.93683105 174.71087891 21.24475586 173.75097656 21.56201172 C172.7400293 21.89217285 171.72908203 22.22233398 170.6875 22.5625 C152.58066973 28.68149558 135.7630842 36.881404 119 46 C118.10990234 46.48404297 117.21980469 46.96808594 116.30273438 47.46679688 C113.49253204 48.99694909 110.68356429 50.52934348 107.875 52.0625 C106.94244385 52.57127686 106.0098877 53.08005371 105.04907227 53.60424805 C104.13182373 54.10480713 103.2145752 54.60536621 102.26953125 55.12109375 C101.37443848 55.6094873 100.4793457 56.09788086 99.55712891 56.60107422 C97.95092077 57.47978079 96.34619693 58.36121169 94.74365234 59.24658203 C78.75719982 68.07525326 61.81171699 76.61600155 44 81 C42.89978516 81.29003906 42.89978516 81.29003906 41.77734375 81.5859375 C37.58346724 82.21118491 33.42059745 82.10353674 29.1875 82.0625 C28.30384766 82.05798828 27.42019531 82.05347656 26.50976562 82.04882812 C24.33981441 82.03709866 22.16989828 82.01916495 20 82 C20.495 80.515 20.495 80.515 21 79 C23.30859375 78 23.30859375 78 26.4375 77 C33.30615361 74.51190374 39.16495766 71.04912354 45.32592773 67.15478516 C49.80119649 64.32905 54.27521744 61.75967799 59 59.375 C66.48566105 55.42818758 74.34359102 50.40072483 77 42 C77.37593066 40.0075675 77.71979545 38.0081326 78 36 C77.18402344 36.15855469 76.36804688 36.31710938 75.52734375 36.48046875 C54.14562598 39.629714 33.134377 33.33404404 15.40625 21.26171875 C14.9421875 20.84535156 14.478125 20.42898437 14 20 C14 19.34 14 18.68 14 18 C13.13761719 17.65775391 13.13761719 17.65775391 12.2578125 17.30859375 C9.39956527 15.65199717 7.89003615 13.67132056 5.875 11.0625 C5.19179687 10.18722656 4.50859375 9.31195313 3.8046875 8.41015625 C0 3.32900433 0 3.32900433 0 0 Z " fill="#BE9209" transform="translate(64,153)"/>
<path d="M0 0 C0.433125 0.474375 0.86625 0.94875 1.3125 1.4375 C3.02309613 3.23686957 3.02309613 3.23686957 6 4 C6.33 4.99 6.66 5.98 7 7 C7.33 6.67 7.66 6.34 8 6 C10.4375 5.75 10.4375 5.75 13 6 C13.99 7.485 13.99 7.485 15 9 C17.77678276 9.76802165 17.77678276 9.76802165 20.9375 10.125 C24.12746563 10.56686644 26.94079789 10.98026596 30 12 C30 12.66 30 13.32 30 14 C45.69675661 15.52093299 61.18551356 16.21067439 76.94165039 16.01367188 C78.19582764 16.00013672 79.45000488 15.98660156 80.7421875 15.97265625 C81.8544873 15.95468994 82.96678711 15.93672363 84.11279297 15.91821289 C86.61171095 15.98900078 88.62561019 16.26462373 91 17 C91.495 19.475 91.495 19.475 92 22 C91.45730469 22.34289062 90.91460937 22.68578125 90.35546875 23.0390625 C83.87723363 27.77809576 82.67182385 32.41075579 81.375 40.18359375 C81.189375 41.57771484 81.189375 41.57771484 81 43 C85.455 42.505 85.455 42.505 90 42 C89.67 42.99 89.34 43.98 89 45 C89.87011719 44.51080078 89.87011719 44.51080078 90.7578125 44.01171875 C95.12660294 41.56779142 99.52213648 39.23893176 104 37 C104.804375 36.505 105.60875 36.01 106.4375 35.5 C110.51338237 33.11411764 114.76670312 31.40319321 119.25 29.9375 C122.16587399 29.07470233 122.16587399 29.07470233 125 27 C127.31715943 26.39285967 129.6539983 25.85886285 132 25.375 C133.2375 25.11460937 134.475 24.85421875 135.75 24.5859375 C139 24 139 24 142 24 C142 23.34 142 22.68 142 22 C148.11404596 20.14256832 153.58518742 18.57234583 160 19 C160 19.99 160 20.98 160 22 C161.65 22 163.3 22 165 22 C159.65467807 25.56354796 154.50060481 27.48754536 148 27 C148.33 25.68 148.66 24.36 149 23 C144.16797514 25.6787161 140.55151561 29.12539936 136.59765625 32.94140625 C133.79990068 35.15857495 131.42474891 36.07776048 128 37 C129.11756266 33.13151386 130.02873292 30.71077243 133 28 C131.27046032 28.62396703 129.541385 29.24922128 127.8125 29.875 C126.84957031 30.22304687 125.88664062 30.57109375 124.89453125 30.9296875 C123.02174072 31.62219034 121.16295037 32.35437137 119.32421875 33.1328125 C117 34 117 34 114 34 C114 34.66 114 35.32 114 36 C112.948125 36.433125 111.89625 36.86625 110.8125 37.3125 C108.62058217 38.24876829 106.67125219 39.19897894 104.625 40.4375 C98.5686694 44.04245869 93.0299193 46.17295067 86 47 C85.278125 47.391875 84.55625 47.78375 83.8125 48.1875 C83.214375 48.455625 82.61625 48.72375 82 49 C80.68 48.34 79.36 47.68 78 47 C78.33 43.04 78.66 39.08 79 35 C77.34871094 35.02320313 75.69742188 35.04640625 73.99609375 35.0703125 C71.80990037 35.08907811 69.62370208 35.10727746 67.4375 35.125 C65.80844727 35.15013672 65.80844727 35.15013672 64.14648438 35.17578125 C58.33094191 35.21113409 53.47515416 34.99161409 48 33 C47.20851562 32.73058594 46.41703125 32.46117187 45.6015625 32.18359375 C40.11111111 30.11111111 40.11111111 30.11111111 39 29 C37.1746875 28.9690625 37.1746875 28.9690625 35.3125 28.9375 C28.06872993 28.24098365 22.01715001 23.80216161 16 20 C14.95714844 19.35804688 13.91429688 18.71609375 12.83984375 18.0546875 C9.89639439 15.92503913 7.95308797 13.81279001 5.75 10.9375 C5.08484375 10.08027344 4.4196875 9.22304687 3.734375 8.33984375 C0 3.3018018 0 3.3018018 0 0 Z " fill="#C48E07" transform="translate(64,153)"/>
<path d="M0 0 C0.33 0.66 0.66 1.32 1 2 C1.66 2 2.32 2 3 2 C3.103125 2.598125 3.20625 3.19625 3.3125 3.8125 C4.09701691 6.30869017 5.09889308 7.25731865 7 9 C7.33 9.66 7.66 10.32 8 11 C8.33 10.34 8.66 9.68 9 9 C12.47843366 10.22215237 14.43184761 11.43184761 17 14 C18.546875 14.7115625 18.546875 14.7115625 20.125 15.4375 C23 17 23 17 23.875 19.1875 C23.91625 19.785625 23.9575 20.38375 24 21 C25.051875 21.0928125 25.051875 21.0928125 26.125 21.1875 C29.92797627 22.26225416 32.04486753 24.42211849 35 27 C36.32608822 27.68096422 37.65686601 28.35330586 39 29 C39.495 29.99 39.495 29.99 40 31 C42.3140622 31.73075648 44.64828869 32.40138258 47 33 C47 33.66 47 34.32 47 35 C47.90492187 35.05607422 47.90492187 35.05607422 48.828125 35.11328125 C52.33105642 35.40142561 55.32696075 35.70451935 58.5625 37.125 C60.75369449 39.98307977 60.2625433 42.52130134 60 46 C59.34 46 58.68 46 58 46 C58 46.66 58 47.32 58 48 C56.72125 48.2475 55.4425 48.495 54.125 48.75 C50.62361122 49.49797469 47.71382172 50.56778742 44.5 52.125 C33.90807996 56.54654917 18.14065651 55.01604651 7.6171875 51.1171875 C6.13837607 50.46280056 4.67141473 49.78085503 3.21875 49.0703125 C0.81241542 47.90951026 -1.63008413 46.95438047 -4.125 46 C-8.34441317 44.33860606 -12.12899249 42.35626544 -16 40 C-15.67 41.98 -15.34 43.96 -15 46 C-17 44 -17 44 -17.125 40.875 C-17.08375 39.92625 -17.0425 38.9775 -17 38 C-15.57494141 38.61681641 -15.57494141 38.61681641 -14.12109375 39.24609375 C-9.45821113 41.24279707 -4.76491536 43.16107323 -0.0625 45.0625 C0.79279297 45.41376953 1.64808594 45.76503906 2.52929688 46.12695312 C19.98355658 53.16990002 34.91006208 52.96523155 52.48046875 46.31640625 C55.31730549 45.20540498 55.31730549 45.20540498 56 42 C51.64385108 40.42805635 47.43860296 39.5057559 42.875 38.75 C32.00235261 36.72730665 21.96685715 31.80591054 14 24 C14 23.34 14 22.68 14 22 C13.01 21.67 12.02 21.34 11 21 C11 20.34 11 19.68 11 19 C10.4225 18.773125 9.845 18.54625 9.25 18.3125 C6.35094551 16.62138488 4.87190626 14.77558514 3 12 C2.375 9.4375 2.375 9.4375 2 7 C1.649375 6.29875 1.29875 5.5975 0.9375 4.875 C0 3 0 3 0 0 Z " fill="#F4C322" transform="translate(78,105)"/>
<path d="M0 0 C0.99 0.495 0.99 0.495 2 1 C-2.94454094 3.00500511 -7.89516887 4.9803228 -12.90234375 6.82421875 C-31.76943502 13.7810285 -49.23894038 22.55408119 -66.82714844 32.25341797 C-97.76930283 49.28636445 -97.76930283 49.28636445 -113.125 56.0625 C-114.07238037 56.48611816 -115.01976074 56.90973633 -115.99584961 57.34619141 C-117.30114624 57.9037915 -117.30114624 57.9037915 -118.6328125 58.47265625 C-119.38449707 58.79500244 -120.13618164 59.11734863 -120.91064453 59.44946289 C-123.32021903 60.08437648 -124.67073073 59.80309411 -127 59 C-124 57 -124 57 -121.125 56.0625 C-117.98577616 55.13181733 -117.98577616 55.13181733 -115.4375 53.375 C-112.70015326 51.83085568 -111.09018267 51.7351272 -108 52 C-107.67 51.01 -107.34 50.02 -107 49 C-103.45075299 46.36341651 -100.36109605 45.50710419 -96 45 C-96 44.34 -96 43.68 -96 43 C-92.27034861 40.96564469 -90.33094958 40 -86 40 C-85.67 39.01 -85.34 38.02 -85 37 C-82.66666667 36.33333333 -80.33333333 35.66666667 -78 35 C-77.67 34.01 -77.34 33.02 -77 32 C-73.4375 30.8125 -73.4375 30.8125 -70 30 C-70 29.01 -70 28.02 -70 27 C-69.34 26.938125 -68.68 26.87625 -68 26.8125 C-65.16727367 26.04530328 -63.59940172 25.20914847 -61.1875 23.625 C-58.49002988 21.85541904 -55.98186747 20.50538859 -52.9375 19.4375 C-45.59764102 16.83349545 -41.01096596 13.3240187 -35.796875 7.609375 C-34 6 -34 6 -31 6 C-31.33 7.32 -31.66 8.64 -32 10 C-25.3092111 8.6496278 -19.03951508 6.75571149 -12.625 4.4375 C-10.86719706 3.81117109 -9.10938496 3.18486787 -7.3515625 2.55859375 C-6.58666504 2.28329834 -5.82176758 2.00800293 -5.03369141 1.72436523 C-3.36289344 1.12925628 -1.68260169 0.56086723 0 0 Z " fill="#BCA127" transform="translate(244,170)"/>
<path d="M0 0 C0.433125 0.474375 0.86625 0.94875 1.3125 1.4375 C3.02309613 3.23686957 3.02309613 3.23686957 6 4 C6.33 4.99 6.66 5.98 7 7 C7.33 6.67 7.66 6.34 8 6 C10.4375 5.75 10.4375 5.75 13 6 C13.99 7.485 13.99 7.485 15 9 C17.77678276 9.76802165 17.77678276 9.76802165 20.9375 10.125 C24.12746563 10.56686644 26.94079789 10.98026596 30 12 C30 12.66 30 13.32 30 14 C45.69675661 15.52093299 61.18551356 16.21067439 76.94165039 16.01367188 C78.19582764 16.00013672 79.45000488 15.98660156 80.7421875 15.97265625 C81.8544873 15.95468994 82.96678711 15.93672363 84.11279297 15.91821289 C86.61171095 15.98900078 88.62561019 16.26462373 91 17 C91.495 19.475 91.495 19.475 92 22 C91.01 22.66 90.02 23.32 89 24 C89.33 22.35 89.66 20.7 90 19 C88.40285156 19.2165625 88.40285156 19.2165625 86.7734375 19.4375 C70.7064785 21.53391949 55.90921357 21.1884509 40 18 C39.67 17.67 39.34 17.34 39 17 C36.47403741 16.76346477 33.96892793 16.57826308 31.4375 16.4375 C30.37112305 16.37272461 30.37112305 16.37272461 29.28320312 16.30664062 C27.52238088 16.20028223 25.7612168 16.09961154 24 16 C23.7525 16.639375 23.505 17.27875 23.25 17.9375 C22 20 22 20 20.109375 20.86328125 C15.95970395 21.13224141 13.07301658 18.55714917 10 16 C0 4.96491228 0 4.96491228 0 0 Z " fill="#D1AC2E" transform="translate(64,153)"/>
<path d="M0 0 C0 0.99 0 1.98 0 3 C1.65 3 3.3 3 5 3 C-0.34532193 6.56354796 -5.49939519 8.48754536 -12 8 C-11.67 6.68 -11.34 5.36 -11 4 C-15.83202486 6.6787161 -19.44848439 10.12539936 -23.40234375 13.94140625 C-26.20009932 16.15857495 -28.57525109 17.07776048 -32 18 C-30.88243734 14.13151386 -29.97126708 11.71077243 -27 9 C-28.72953968 9.62396703 -30.458615 10.24922128 -32.1875 10.875 C-33.63189453 11.39707031 -33.63189453 11.39707031 -35.10546875 11.9296875 C-36.97825928 12.62219034 -38.83704963 13.35437137 -40.67578125 14.1328125 C-43 15 -43 15 -46 15 C-46 15.66 -46 16.32 -46 17 C-47.051875 17.433125 -48.10375 17.86625 -49.1875 18.3125 C-51.37941783 19.24876829 -53.32874781 20.19897894 -55.375 21.4375 C-61.4313306 25.04245869 -66.9700807 27.17295067 -74 28 C-74.721875 28.391875 -75.44375 28.78375 -76.1875 29.1875 C-76.785625 29.455625 -77.38375 29.72375 -78 30 C-80.11328125 29.05078125 -80.11328125 29.05078125 -82 28 C-81.00318287 21.54189755 -79.98363508 15.23428168 -78 9 C-77.34 9.33 -76.68 9.66 -76 10 C-76.99 14.62 -77.98 19.24 -79 24 C-76.03 23.67 -73.06 23.34 -70 23 C-70.33 23.99 -70.66 24.98 -71 26 C-70.12988281 25.51080078 -70.12988281 25.51080078 -69.2421875 25.01171875 C-64.87339706 22.56779142 -60.47786352 20.23893176 -56 18 C-55.195625 17.505 -54.39125 17.01 -53.5625 16.5 C-49.48661763 14.11411764 -45.23329688 12.40319321 -40.75 10.9375 C-37.83412601 10.07470233 -37.83412601 10.07470233 -35 8 C-32.68284057 7.39285967 -30.3460017 6.85886285 -28 6.375 C-26.7625 6.11460937 -25.525 5.85421875 -24.25 5.5859375 C-21 5 -21 5 -18 5 C-18 4.34 -18 3.68 -18 3 C-11.88595404 1.14256832 -6.41481258 -0.42765417 0 0 Z " fill="#D2A60E" transform="translate(224,172)"/>
<path d="M0 0 C2.90179933 1.62159374 5.13479527 3.13479527 7.5 5.5 C12.04288747 9.4586316 18.27397032 9.86855488 24 11 C24.99 11.33 25.98 11.66 27 12 C27 11.34 27 10.68 27 10 C28.65 10 30.3 10 32 10 C32.495 11.485 32.495 11.485 33 13 C33.90492187 13.05607422 33.90492187 13.05607422 34.828125 13.11328125 C38.33105642 13.40142561 41.32696075 13.70451935 44.5625 15.125 C46.75369449 17.98307977 46.2625433 20.52130134 46 24 C45.34 24 44.68 24 44 24 C44 24.66 44 25.32 44 26 C42.72125 26.2475 41.4425 26.495 40.125 26.75 C36.62361122 27.49797469 33.71382172 28.56778742 30.5 30.125 C19.90807996 34.54654917 4.14065651 33.01604651 -6.3828125 29.1171875 C-7.86162393 28.46280056 -9.32858527 27.78085503 -10.78125 27.0703125 C-13.18758458 25.90951026 -15.63008413 24.95438047 -18.125 24 C-22.34441317 22.33860606 -26.12899249 20.35626544 -30 18 C-29.67 19.98 -29.34 21.96 -29 24 C-31 22 -31 22 -31.125 18.875 C-31.08375 17.92625 -31.0425 16.9775 -31 16 C-30.04996094 16.41121094 -29.09992187 16.82242188 -28.12109375 17.24609375 C-23.45821113 19.24279707 -18.76491536 21.16107323 -14.0625 23.0625 C-12.77956055 23.5894043 -12.77956055 23.5894043 -11.47070312 24.12695312 C5.98355658 31.16990002 20.91006208 30.96523155 38.48046875 24.31640625 C41.31730549 23.20540498 41.31730549 23.20540498 42 20 C37.64385108 18.42805635 33.43860296 17.5057559 28.875 16.75 C18.00235261 14.72730665 7.96685715 9.80591054 0 2 C0 1.34 0 0.68 0 0 Z " fill="#C2A32C" transform="translate(92,127)"/>
<path d="M0 0 C3.84893854 1.28297951 4.27343891 2.68437738 6.3125 6.125 C11.00090077 14.18658065 11.00090077 14.18658065 18 20 C18 20.66 18 21.32 18 22 C18.515625 22.226875 19.03125 22.45375 19.5625 22.6875 C21.69116905 23.83370641 23.67970148 25.03233638 25.6875 26.375 C26.28949219 26.77460937 26.89148438 27.17421875 27.51171875 27.5859375 C29.31772078 29.30187644 29.61315581 30.57577643 30 33 C28.33791727 32.05023844 26.67660663 31.0990963 25.01953125 30.140625 C23.69863764 29.39458838 22.36268764 28.67445734 21.01171875 27.984375 C16.19675926 25.47222222 16.19675926 25.47222222 15.0625 22.75 C15.041875 22.1725 15.02125 21.595 15 21 C14.401875 20.896875 13.80375 20.79375 13.1875 20.6875 C10.71756736 19.91123545 9.67748765 18.92911079 8 17 C8.62488781 24.96731964 10.02624408 34.31950135 15.13671875 40.64453125 C17 43 17 43 17 47 C17.66 47 18.32 47 19 47 C20.98 51.95 22.96 56.9 25 62 C21.59303751 60.86434584 21.39513192 60.47175454 19.73046875 57.4921875 C19.31933838 56.75991943 18.90820801 56.02765137 18.48461914 55.27319336 C18.05656982 54.48178955 17.62852051 53.69038574 17.1875 52.875 C16.74462646 52.06619385 16.30175293 51.2573877 15.84545898 50.42407227 C11.93797973 43.14898632 8.80025195 35.76603206 6 28 C5.69578125 27.195625 5.3915625 26.39125 5.078125 25.5625 C2.18951476 17.5451328 -0.33776177 8.55663156 0 0 Z " fill="#F3E767" transform="translate(57,53)"/>
<path d="M0 0 C0.98742187 0.56589844 1.97484375 1.13179687 2.9921875 1.71484375 C4.28644206 2.45575759 5.58071379 3.19664145 6.875 3.9375 C7.52597656 4.31068359 8.17695312 4.68386719 8.84765625 5.06835938 C14.2899882 8.21987564 14.2899882 8.21987564 20.3125 9.375 C24.27954296 9.77487793 26.68897843 10.70067946 30 13 C35.44213939 15.51175664 40.89282133 16.09274059 46.8359375 16.31640625 C48.43115234 16.37924805 48.43115234 16.37924805 50.05859375 16.44335938 C51.15300781 16.48267578 52.24742187 16.52199219 53.375 16.5625 C54.49261719 16.60568359 55.61023438 16.64886719 56.76171875 16.69335938 C59.50770199 16.79897411 62.25376881 16.9010797 65 17 C66.19297321 30.80203724 66.19297321 30.80203724 63.7109375 35.375 C61.59129079 37.32327101 59.53488075 38.62709378 57 40 C55.90042969 40.61230469 54.80085938 41.22460938 53.66796875 41.85546875 C47.9749334 44.90085273 42.2363465 47.41080795 36.03515625 49.2421875 C32.9292971 50.39868784 30.32914321 52.21102659 27.62890625 54.109375 C26.82259766 54.55023438 26.82259766 54.55023438 26 55 C25.34 54.67 24.68 54.34 24 54 C29.86988881 49.51465499 35.92552792 45.94042474 42.5 42.625 C49.99806285 38.79121216 58.44967503 34.37126321 62.21484375 26.44140625 C63.11301379 23.64858895 63.59500783 20.90244392 64 18 C63.18402344 18.15855469 62.36804688 18.31710938 61.52734375 18.48046875 C40.14562598 21.629714 19.134377 15.33404404 1.40625 3.26171875 C0.9421875 2.84535156 0.478125 2.42898437 0 2 C0 1.34 0 0.68 0 0 Z " fill="#B18C18" transform="translate(78,171)"/>
<path d="M0 0 C2.9715523 1.11433211 5.76398008 2.39102493 8.5625 3.875 C13.82282939 6.54501568 19.37865185 8.25544368 25 10 C26.04607422 10.32677734 26.04607422 10.32677734 27.11328125 10.66015625 C38.53681709 14.0796182 52.28600211 15.27381028 63.21484375 9.875 C65 9 65 9 67 9 C67 9.66 67 10.32 67 11 C59.30189951 15.56787607 52.08236894 15.54271767 43.3125 15.375 C42.02021484 15.37371094 40.72792969 15.37242187 39.39648438 15.37109375 C33.46214444 15.31594759 28.59875214 15.11901804 23 13 C23 13.99 23 14.98 23 16 C23.66 16.66 24.32 17.32 25 18 C22.18263828 18.78260048 20.54030762 19.19511109 17.75 18.1875 C16 17 16 17 15 15 C12.47266765 14.34444881 12.47266765 14.34444881 10 14 C9.67 14.66 9.34 15.32 9 16 C8.67 14.68 8.34 13.36 8 12 C7.0409375 11.8453125 7.0409375 11.8453125 6.0625 11.6875 C5.381875 11.460625 4.70125 11.23375 4 11 C3.67 10.01 3.34 9.02 3 8 C2.34 8 1.68 8 1 8 C0.67 5.36 0.34 2.72 0 0 Z " fill="#FADB40" transform="translate(62,145)"/>
<path d="M0 0 C4.38852068 1.45312554 8.77306046 2.91419623 13.13745117 4.43847656 C23.26644683 7.94612254 33.43631519 10.7794786 43.87915039 13.18798828 C46.33146686 13.75438063 48.78003495 14.33524057 51.22851562 14.91796875 C59.24885028 16.80620581 67.20254131 18.41201902 75.36547852 19.57861328 C85.49330782 21.19854038 91.98644388 25.88169924 98 34 C97.505 34.99 97.505 34.99 97 36 C96.12214844 35.23816406 96.12214844 35.23816406 95.2265625 34.4609375 C86.86814161 27.75914057 78.18020839 24.91651808 68 22 C66.91589844 21.68160156 65.83179688 21.36320312 64.71484375 21.03515625 C59.19010608 19.47331058 53.61338201 18.1971191 48 17 C46.49969314 16.66805057 44.99969412 16.33470682 43.5 16 C42.76910156 15.83757812 42.03820312 15.67515625 41.28515625 15.5078125 C35.64257812 14.25390625 35.64257812 14.25390625 30 13 C30 12.34 30 11.68 30 11 C28.2675 10.938125 28.2675 10.938125 26.5 10.875 C18.95975157 10.07054674 11.98047587 6.79961639 5 4 C4.01515625 3.60683594 3.0303125 3.21367188 2.015625 2.80859375 C1.35046875 2.54175781 0.6853125 2.27492188 0 2 C0 1.34 0 0.68 0 0 Z " fill="#F3E35C" transform="translate(122,102)"/>
<path d="M0 0 C0.59611084 0.03029297 1.19222168 0.06058594 1.80639648 0.09179688 C14.87237296 0.73856582 27.89110999 1.11346644 40.97436523 0.96289062 C42.46432007 0.95032227 42.46432007 0.95032227 43.984375 0.9375 C44.85803711 0.92589844 45.73169922 0.91429687 46.63183594 0.90234375 C48.90106947 0.99592039 50.82739181 1.36092359 53 2 C53.495 4.475 53.495 4.475 54 7 C53.01 7.66 52.02 8.32 51 9 C51.33 7.35 51.66 5.7 52 4 C50.40285156 4.2165625 50.40285156 4.2165625 48.7734375 4.4375 C35.86149776 6.12225205 23.68248893 6.58192176 10.75 4.6875 C9.91484863 4.56995361 9.07969727 4.45240723 8.21923828 4.33129883 C6.1264471 3.99245978 4.05869101 3.50633797 2 3 C1.34 2.01 0.68 1.02 0 0 Z " fill="#EEBB25" transform="translate(102,168)"/>
<path d="M0 0 C3.76017964 1.50575426 5.55462896 3.68586452 8.0625 6.8125 C12.78551636 12.19364159 17.36683409 14.56351587 24 17 C25.89683321 17.7683696 27.79272535 18.53906798 29.6875 19.3125 C31.12394275 19.87769442 32.56103122 20.44126809 34 21 C30.234375 22.125 30.234375 22.125 28.125 21 C25.92442541 19.71125672 25.92442541 19.71125672 23 20.5625 C20 21 20 21 17.875 19.5 C17.25625 19.005 16.6375 18.51 16 18 C12.93288436 18.27882869 11.63629294 19.24247137 9 21 C2.01453587 22.88595124 -8.09827758 23.93964936 -14.71875 20.6484375 C-18.5652948 17.39035664 -21.26361791 13.77505074 -23 9 C-23 8.01 -23 7.02 -23 6 C-21.3743193 6.30893932 -19.74947252 6.6222695 -18.125 6.9375 C-17.22007812 7.11152344 -16.31515625 7.28554687 -15.3828125 7.46484375 C-13 8 -13 8 -11 9 C-11.33 9.66 -11.66 10.32 -12 11 C-14.97 10.01 -17.94 9.02 -21 8 C-20.09232898 9.44319692 -19.17343894 10.87934106 -18.25 12.3125 C-17.73953125 13.11300781 -17.2290625 13.91351563 -16.703125 14.73828125 C-14.84400029 17.20716475 -13.7593282 18.58402895 -11 20 C-7.90624678 20.35375478 -4.85848976 20.2822118 -1.75 20.1875 C-0.90953125 20.17396484 -0.0690625 20.16042969 0.796875 20.14648438 C2.86485938 20.11123464 4.93251271 20.0574302 7 20 C6.67 19.01 6.34 18.02 6 17 C7.65 17 9.3 17 11 17 C9.70140165 12.12668861 7.84557309 9.31782963 4.375 5.6875 C0 1.07097792 0 1.07097792 0 0 Z " fill="#CFC853" transform="translate(214,130)"/>
<path d="M0 0 C0 1.32 0 2.64 0 4 C-6.83911885 6.55327104 -12.66186666 8.5644718 -20 8 C-20 7.01 -20 6.02 -20 5 C-20.96421875 5.2165625 -21.9284375 5.433125 -22.921875 5.65625 C-24.18515625 5.9346875 -25.4484375 6.213125 -26.75 6.5 C-28.62945312 6.91765625 -28.62945312 6.91765625 -30.546875 7.34375 C-34 8 -34 8 -38 8 C-38 8.66 -38 9.32 -38 10 C-40.97 10.66 -43.94 11.32 -47 12 C-38.38786941 4.95371134 -25.88578916 2.60415312 -15 3 C-15 2.34 -15 1.68 -15 1 C-10.03926578 -0.32286246 -5.08888488 -0.08893197 0 0 Z " fill="#EFCB29" transform="translate(244,167)"/>
<path d="M0 0 C0.98742187 0.56589844 1.97484375 1.13179687 2.9921875 1.71484375 C4.28644206 2.45575759 5.58071379 3.19664145 6.875 3.9375 C7.52597656 4.31068359 8.17695312 4.68386719 8.84765625 5.06835938 C14.2899882 8.21987564 14.2899882 8.21987564 20.3125 9.375 C24.27954296 9.77487793 26.68897843 10.70067946 30 13 C35.44213939 15.51175664 40.89282133 16.09274059 46.8359375 16.31640625 C48.43115234 16.37924805 48.43115234 16.37924805 50.05859375 16.44335938 C51.15300781 16.48267578 52.24742187 16.52199219 53.375 16.5625 C54.49261719 16.60568359 55.61023438 16.64886719 56.76171875 16.69335938 C59.50770199 16.79897411 62.25376881 16.9010797 65 17 C65 19.31 65 21.62 65 24 C64.67 24 64.34 24 64 24 C64 22.02 64 20.04 64 18 C63.18402344 18.15855469 62.36804688 18.31710938 61.52734375 18.48046875 C40.14562598 21.629714 19.134377 15.33404404 1.40625 3.26171875 C0.9421875 2.84535156 0.478125 2.42898437 0 2 C0 1.34 0 0.68 0 0 Z " fill="#8A6D1F" transform="translate(78,171)"/>
<path d="M0 0 C0.66 0.33 1.32 0.66 2 1 C-11.20428255 9.35026608 -25.17026122 16.357518 -39.4375 22.6875 C-40.92092896 23.35700684 -40.92092896 23.35700684 -42.43432617 24.04003906 C-43.36220947 24.44319336 -44.29009277 24.84634766 -45.24609375 25.26171875 C-46.06779053 25.62225342 -46.8894873 25.98278809 -47.73608398 26.35424805 C-50.26420756 27.0753617 -51.55479618 26.87396317 -54 26 C-51 24 -51 24 -48.125 23.0625 C-44.98577616 22.13181733 -44.98577616 22.13181733 -42.4375 20.375 C-39.70015326 18.83085568 -38.09018267 18.7351272 -35 19 C-34.67 18.01 -34.34 17.02 -34 16 C-30.45075299 13.36341651 -27.36109605 12.50710419 -23 12 C-23 11.34 -23 10.68 -23 10 C-19.08246979 7.84535839 -15.5122626 6.64012081 -11.16015625 5.67578125 C-7.77286904 4.6161055 -4.88863178 2.78478098 -1.8828125 0.92578125 C-1.26148438 0.62027344 -0.64015625 0.31476563 0 0 Z " fill="#A18426" transform="translate(171,203)"/>
<path d="M0 0 C0.95003906 0.41121094 1.90007813 0.82242188 2.87890625 1.24609375 C7.54178887 3.24279707 12.23508464 5.16107323 16.9375 7.0625 C17.79279297 7.41376953 18.64808594 7.76503906 19.52929688 8.12695312 C36.98355658 15.16990002 51.91006208 14.96523155 69.48046875 8.31640625 C72.31730549 7.20540498 72.31730549 7.20540498 73 4 C73.66 4 74.32 4 75 4 C74.78515625 5.83984375 74.78515625 5.83984375 74 8 C70.90584289 10.12911786 67.43016557 11.48669166 64 13 C62.824375 13.598125 61.64875 14.19625 60.4375 14.8125 C49.51180186 18.71295207 32.73642276 16.71001983 22.375 12.125 C21.6634375 11.77695313 20.951875 11.42890625 20.21875 11.0703125 C17.81241542 9.90951026 15.36991587 8.95438047 12.875 8 C8.65558683 6.33860606 4.87100751 4.35626544 1 2 C1.33 3.98 1.66 5.96 2 8 C0 6 0 6 -0.125 2.875 C-0.08375 1.92625 -0.0425 0.9775 0 0 Z " fill="#A88B32" transform="translate(61,143)"/>
<path d="M0 0 C0.66 0.33 1.32 0.66 2 1 C1.01 5.62 0.02 10.24 -1 15 C3.455 14.505 3.455 14.505 8 14 C7.67 14.99 7.34 15.98 7 17 C7.87011719 16.51080078 7.87011719 16.51080078 8.7578125 16.01171875 C22.057223 8.57194951 22.057223 8.57194951 29 7 C29.99 7.33 30.98 7.66 32 8 C30.948125 8.433125 29.89625 8.86625 28.8125 9.3125 C26.62058217 10.24876829 24.67125219 11.19897894 22.625 12.4375 C16.5686694 16.04245869 11.0299193 18.17295067 4 19 C3.278125 19.391875 2.55625 19.78375 1.8125 20.1875 C1.214375 20.455625 0.61625 20.72375 0 21 C-2.11328125 20.05078125 -2.11328125 20.05078125 -4 19 C-3.00318287 12.54189755 -1.98363508 6.23428168 0 0 Z " fill="#CE9D0B" transform="translate(146,181)"/>
<path d="M0 0 C6.73060488 0.44870699 11.97987294 3.10113627 18 6 C20.39431006 7.10746589 22.79014271 8.21164605 25.1875 9.3125 C27.1251478 10.2080136 29.0627019 11.10373013 31 12 C28.44819695 15.08342869 25.75467222 16.01684785 22 17.25 C20.948125 17.60578125 19.89625 17.9615625 18.8125 18.328125 C16 19 16 19 13 18 C13.56589844 17.73445313 14.13179687 17.46890625 14.71484375 17.1953125 C15.44832031 16.84210938 16.18179688 16.48890625 16.9375 16.125 C17.66839844 15.77695313 18.39929688 15.42890625 19.15234375 15.0703125 C21.16332459 14.1315023 21.16332459 14.1315023 22 12 C21.01 11.67 20.02 11.34 19 11 C18.34 10.34 17.68 9.68 17 9 C14.07015499 7.69663648 11.12140962 6.48369396 8.14257812 5.29882812 C4.8633638 3.95059174 2.25789509 2.79112493 0 0 Z " fill="#F5EF6D" transform="translate(236,149)"/>
<path d="M0 0 C10.00127036 -1.00571434 18.33995346 1.14527402 27 6 C30.10856464 8.73500322 32.63835568 11.60466472 35 15 C34.67 15.66 34.34 16.32 34 17 C33.41476563 16.49210937 32.82953125 15.98421875 32.2265625 15.4609375 C24.37682156 9.16700107 16.46285984 6.42937823 6.92285156 3.59863281 C4.55820734 2.86245866 2.27751053 1.97089094 0 1 C0 0.67 0 0.34 0 0 Z " fill="#F8F771" transform="translate(185,121)"/>
<path d="M0 0 C0.66 0.33 1.32 0.66 2 1 C-4.83864147 3.74869445 -11.6876758 6.46801431 -18.5625 9.125 C-19.44357422 9.47175781 -20.32464844 9.81851563 -21.23242188 10.17578125 C-26.15341878 12.07154537 -30.91055096 13.56604216 -36.10522461 14.50341797 C-38.30966135 14.97125711 -38.30966135 14.97125711 -41 17 C-43.1875 16.625 -43.1875 16.625 -45 16 C-43.42489875 14.51207039 -41.83959136 13.0349394 -40.25 11.5625 C-39.36828125 10.73878906 -38.4865625 9.91507813 -37.578125 9.06640625 C-35.21124968 7.16931982 -33.9490809 6.37897068 -31 6 C-31.33 7.32 -31.66 8.64 -32 10 C-25.3092111 8.6496278 -19.03951508 6.75571149 -12.625 4.4375 C-10.86719706 3.81117109 -9.10938496 3.18486787 -7.3515625 2.55859375 C-6.58666504 2.28329834 -5.82176758 2.00800293 -5.03369141 1.72436523 C-3.36289344 1.12925628 -1.68260169 0.56086723 0 0 Z " fill="#D3A714" transform="translate(244,170)"/>
<path d="M0 0 C0 0.99 0 1.98 0 3 C1.65 3 3.3 3 5 3 C-0.34532193 6.56354796 -5.49939519 8.48754536 -12 8 C-11.67 6.68 -11.34 5.36 -11 4 C-13.31 4.33 -15.62 4.66 -18 5 C-18 4.34 -18 3.68 -18 3 C-11.88595404 1.14256832 -6.41481258 -0.42765417 0 0 Z " fill="#DBB019" transform="translate(224,172)"/>
<path d="M0 0 C14.19 0 28.38 0 43 0 C43.495 1.98 43.495 1.98 44 4 C43.01 4.66 42.02 5.32 41 6 C41.33 4.35 41.66 2.7 42 1 C40.40285156 1.2165625 40.40285156 1.2165625 38.7734375 1.4375 C25.60397569 3.15273465 13.07577323 3.98874817 0 1 C0 0.67 0 0.34 0 0 Z " fill="#DEA713" transform="translate(112,171)"/>
<path d="M0 0 C0.99 0.33 1.98 0.66 3 1 C4.04718798 3.31254012 5.04346365 5.6485148 6 8 C6.556875 8.721875 7.11375 9.44375 7.6875 10.1875 C9 12 9 12 9 16 C9.66 16 10.32 16 11 16 C12.98 20.95 14.96 25.9 17 31 C13.52544893 29.84181631 13.33950032 29.35557065 11.66015625 26.28125 C11.23669922 25.51296875 10.81324219 24.7446875 10.37695312 23.953125 C9.94318359 23.14359375 9.50941406 22.3340625 9.0625 21.5 C8.63259766 20.72140625 8.20269531 19.9428125 7.75976562 19.140625 C0 4.91635053 0 4.91635053 0 0 Z " fill="#F0D960" transform="translate(65,84)"/>
<path d="M0 0 C10.55808656 -0.3690205 10.55808656 -0.3690205 15 2 C15 2.66 15 3.32 15 4 C15.70125 4.17015625 16.4025 4.3403125 17.125 4.515625 C23.22073842 6.07268862 28.48080518 7.98006321 34 11 C32.4765625 12.17578125 32.4765625 12.17578125 30 13 C27.29869684 12.18843712 24.93233765 11.32164495 22.375 10.1875 C21.694375 9.90068359 21.01375 9.61386719 20.3125 9.31835938 C17.84389019 8.27188348 15.39856812 7.19928406 13 6 C13 5.34 13 4.68 13 4 C8.71 3.01 4.42 2.02 0 1 C0 0.67 0 0.34 0 0 Z " fill="#E6DF71" transform="translate(190,135)"/>
<path d="M0 0 C0.66 0.33 1.32 0.66 2 1 C-5.2801779 5.41222903 -12.65513559 9.42821628 -20.30273438 13.15820312 C-23.57341353 14.75888868 -26.73523093 16.42089643 -29.85546875 18.30078125 C-31.41201172 19.14189453 -31.41201172 19.14189453 -33 20 C-33.66 19.67 -34.32 19.34 -35 19 C-33.71186658 18.16121545 -32.41936744 17.32913217 -31.125 16.5 C-30.40570313 16.0359375 -29.68640625 15.571875 -28.9453125 15.09375 C-27 14 -27 14 -25 14 C-25 13.34 -25 12.68 -25 12 C-24.236875 11.7525 -23.47375 11.505 -22.6875 11.25 C-19.91867983 10.25094937 -19.91867983 10.25094937 -18.734375 8.0546875 C-16.34556864 5.22470519 -14.10473607 4.83192643 -10.5625 3.875 C-6.01806686 2.65908859 -6.01806686 2.65908859 -1.71484375 0.8203125 C-1.14894531 0.54960937 -0.58304688 0.27890625 0 0 Z " fill="#B59A2B" transform="translate(209,183)"/>
<path d="M0 0 C0.33 0.66 0.66 1.32 1 2 C1.66 2 2.32 2 3 2 C3.103125 2.598125 3.20625 3.19625 3.3125 3.8125 C4.11753081 6.37396166 5.0463621 7.19107602 7 9 C7.639375 9.804375 8.27875 10.60875 8.9375 11.4375 C10.93485269 14.02527134 10.93485269 14.02527134 13.25 16.1875 C15 18 15 18 15 20 C15.66 20 16.32 20 17 20 C17 20.99 17 21.98 17 23 C15.02 22.34 13.04 21.68 11 21 C11 20.34 11 19.68 11 19 C10.4225 18.773125 9.845 18.54625 9.25 18.3125 C6.35094551 16.62138488 4.87190626 14.77558514 3 12 C2.375 9.4375 2.375 9.4375 2 7 C1.649375 6.29875 1.29875 5.5975 0.9375 4.875 C0 3 0 3 0 0 Z " fill="#F9D440" transform="translate(78,105)"/>
<path d="M0 0 C2.67727649 0.61647814 4.92653382 1.38054068 7.5 2.4375 C19.05217266 6.76161601 35.23728103 8.77490846 46.9375 4 C47.68902344 3.62875 48.44054687 3.2575 49.21484375 2.875 C51 2 51 2 53 2 C53 2.66 53 3.32 53 4 C45.40118416 8.43422487 38.3345768 8.63807856 29.6875 8.5625 C28.44548828 8.58634766 27.20347656 8.61019531 25.92382812 8.63476562 C17.14955892 8.62096237 7.94087978 7.49908217 1.1706543 1.33422852 C0.78433838 0.89393311 0.39802246 0.4536377 0 0 Z " fill="#EFCC4E" transform="translate(76,152)"/>
<path d="M0 0 C0.495 0.99 0.495 0.99 1 2 C-7.26519508 10.79843348 -16.95798554 17.26770809 -28 22 C-30.13603931 23.32286587 -32.22676701 24.69138491 -34.30078125 26.109375 C-35.14189453 26.55023438 -35.14189453 26.55023438 -36 27 C-36.66 26.67 -37.32 26.34 -38 26 C-32.13049878 21.51495115 -26.0753017 17.93831586 -19.5 14.625 C-12.27105179 10.95374574 -6.66178933 6.87148523 -1 1 C-0.67 0.67 -0.34 0.34 0 0 Z " fill="#877018" transform="translate(140,199)"/>
<path d="M0 0 C1.6256807 0.30893932 3.25052748 0.6222695 4.875 0.9375 C5.77992188 1.11152344 6.68484375 1.28554687 7.6171875 1.46484375 C10 2 10 2 12 3 C11.67 3.66 11.34 4.32 11 5 C8.03 4.01 5.06 3.02 2 2 C2.90767102 3.44319692 3.82656106 4.87934106 4.75 6.3125 C5.26046875 7.11300781 5.7709375 7.91351563 6.296875 8.73828125 C8.15599971 11.20716475 9.2406718 12.58402895 12 14 C15.09375322 14.35375478 18.14151024 14.2822118 21.25 14.1875 C22.09046875 14.17396484 22.9309375 14.16042969 23.796875 14.14648438 C25.86485938 14.11123464 27.93251271 14.0574302 30 14 C29.67 13.01 29.34 12.02 29 11 C30.32 11.66 31.64 12.32 33 13 C32.67 13.66 32.34 14.32 32 15 C25.11362773 16.97124027 14.81651827 17.89729213 8.28125 14.6484375 C4.4347052 11.39035664 1.73638209 7.77505074 0 3 C0 2.01 0 1.02 0 0 Z " fill="#9F8E39" transform="translate(191,136)"/>
<path d="M0 0 C5.50826152 1.50225314 5.50826152 1.50225314 7.89819336 3.92138672 C10.13207106 6.13061366 12.03637921 7.20368084 14.87890625 8.5078125 C15.79994141 8.93707031 16.72097656 9.36632812 17.66992188 9.80859375 C19.10174805 10.46021484 19.10174805 10.46021484 20.5625 11.125 C22.46054774 12.00062929 24.35772276 12.87815345 26.25390625 13.7578125 C27.09252197 14.1408252 27.9311377 14.52383789 28.79516602 14.91845703 C31 16 31 16 34 18 C27.71983392 17.55141671 23.4676931 16.02581074 18 13 C16.60780972 12.28453301 15.21199927 11.57606248 13.8125 10.875 C13.15636719 10.54113281 12.50023438 10.20726563 11.82421875 9.86328125 C9.86422762 8.88869204 9.86422762 8.88869204 7.125 8.0625 C4.2405959 6.62029795 4.05879366 4.94949662 3 2 C2.01 1.67 1.02 1.34 0 1 C0 0.67 0 0.34 0 0 Z " fill="#F3E458" transform="translate(88,84)"/>
<path d="M0 0 C3.89217831 1.29739277 4.36906577 2.8343979 6.4375 6.3125 C8.65609746 10.03001565 10.81608494 13.05400386 14 16 C13.67 16.66 13.34 17.32 13 18 C10.69 15.36 8.38 12.72 6 10 C5.34 11.65 4.68 13.3 4 15 C2 14 2 14 1.3671875 12.109375 C0.51436547 8.02124399 -0.27121668 4.20385856 0 0 Z " fill="#C5BD72" transform="translate(57,53)"/>
<path d="M0 0 C4.81919471 0.67487737 8.91883866 2.57965909 13.3125 4.5625 C14.42334961 5.0565332 14.42334961 5.0565332 15.55664062 5.56054688 C17.37311562 6.36917123 19.18683931 7.18397116 21 8 C20.79321289 9.87988281 20.79321289 9.87988281 20 12 C17.95874023 13.09667969 17.95874023 13.09667969 15.30859375 13.921875 C14.36435547 14.22480469 13.42011719 14.52773437 12.44726562 14.83984375 C11.45404297 15.14019531 10.46082031 15.44054687 9.4375 15.75 C8.44041016 16.06582031 7.44332031 16.38164062 6.41601562 16.70703125 C3.94827264 17.48631851 1.47671261 18.24980688 -1 19 C-1 18.34 -1 17.68 -1 17 C5.27 14.69 11.54 12.38 18 10 C14.59501715 7.73001143 11.01850554 6.07747873 7.3125 4.375 C6.2596582 3.88773438 6.2596582 3.88773438 5.18554688 3.390625 C3.45806262 2.59151664 1.72916746 1.79545957 0 1 C0 0.67 0 0.34 0 0 Z " fill="#B6AD51" transform="translate(248,152)"/>
<path d="M0 0 C2.375 -0.1875 2.375 -0.1875 5 0 C5.66 0.99 6.32 1.98 7 3 C9.77872474 3.73036085 9.77872474 3.73036085 12.9375 4.0625 C16.8142081 4.55709824 18.70272571 4.80181714 22 7 C21.19175781 6.98839844 20.38351563 6.97679687 19.55078125 6.96484375 C17.94783203 6.95130859 17.94783203 6.95130859 16.3125 6.9375 C15.25675781 6.92589844 14.20101562 6.91429687 13.11328125 6.90234375 C10.27589738 6.99134575 7.7561081 7.35060162 5 8 C0 2.25 0 2.25 0 0 Z " fill="#EFC827" transform="translate(72,159)"/>
<path d="M0 0 C-2.64738916 1.4606285 -3.89448334 2 -7 2 C-7 2.66 -7 3.32 -7 4 C-4.14567529 3.68889371 -1.29154475 3.37615574 1.5625 3.0625 C2.36236328 2.97548828 3.16222656 2.88847656 3.98632812 2.79882812 C8.67256697 2.28238548 13.33680546 1.69478469 18 1 C13.95548761 5.04451239 7.46304608 5.11218403 1.96484375 5.1953125 C0.28894936 5.18227052 -1.38689569 5.15879807 -3.0625 5.125 C-3.92810547 5.11597656 -4.79371094 5.10695312 -5.68554688 5.09765625 C-7.79048779 5.07439723 -9.89528342 5.03854008 -12 5 C-11 2 -11 2 -9.2578125 1.015625 C-8.55398437 0.76296875 -7.85015625 0.5103125 -7.125 0.25 C-6.07699219 -0.14445313 -6.07699219 -0.14445313 -5.0078125 -0.546875 C-3 -1 -3 -1 0 0 Z " fill="#9E8023" transform="translate(96,230)"/>
<path d="M0 0 C1.98 0.99 1.98 0.99 4 2 C4 2.66 4 3.32 4 4 C4.515625 4.226875 5.03125 4.45375 5.5625 4.6875 C7.69116905 5.83370641 9.67970148 7.03233638 11.6875 8.375 C12.59048828 8.97441406 12.59048828 8.97441406 13.51171875 9.5859375 C15.31772078 11.30187644 15.61315581 12.57577643 16 15 C14.33524648 14.04871228 12.67181886 13.09501934 11.015625 12.12890625 C9.03567182 10.98714548 9.03567182 10.98714548 7.046875 10.08984375 C4.48207929 8.84516348 2.39964622 7.81874424 1.1171875 5.19140625 C0.5625 3.25 0.5625 3.25 0 0 Z " fill="#EBE263" transform="translate(71,71)"/>
<path d="M0 0 C-6.95976451 2.80086935 -13.93597571 5.55518666 -20.9375 8.25 C-21.86884766 8.61351562 -22.80019531 8.97703125 -23.75976562 9.3515625 C-24.65244141 9.69445312 -25.54511719 10.03734375 -26.46484375 10.390625 C-27.265271 10.70032227 -28.06569824 11.01001953 -28.89038086 11.32910156 C-31 12 -31 12 -34 12 C-33.67 11.01 -33.34 10.02 -33 9 C-30.69140625 8.04296875 -30.69140625 8.04296875 -27.5625 7.1875 C-23.40356574 6.00451425 -19.29209466 4.78251784 -15.203125 3.375 C-14.39286865 3.0963208 -13.5826123 2.8176416 -12.74780273 2.53051758 C-11.13626803 1.97266 -9.52636504 1.41006418 -7.91821289 0.8425293 C-2.21977962 -1.10988981 -2.21977962 -1.10988981 0 0 Z " fill="#BC9F37" transform="translate(246,171)"/>
<path d="M0 0 C2.58422459 0.11418667 5.16679513 0.24092362 7.75 0.375 C8.47960937 0.4059375 9.20921875 0.436875 9.9609375 0.46875 C14.00797144 0.68949731 16.29841994 1.14920997 20 3 C15.38 3 10.76 3 6 3 C5.34 4.32 4.68 5.64 4 7 C1 7 1 7 -0.6875 5.5 C-1.120625 5.005 -1.55375 4.51 -2 4 C-1.34 2.68 -0.68 1.36 0 0 Z " fill="#DCAC15" transform="translate(82,166)"/>
<path d="M0 0 C0.66 0.33 1.32 0.66 2 1 C1.01 5.62 0.02 10.24 -1 15 C3.455 14.505 3.455 14.505 8 14 C7 16 7 16 4.75 17.125 C1.98386705 18.00513321 -0.12048351 18.1645438 -3 18 C-3.36517527 11.42684522 -2.13619737 6.20514474 0 0 Z " fill="#DBAA21" transform="translate(146,181)"/>
<path d="M0 0 C4.455 0.99 4.455 0.99 9 2 C8.01 2.495 8.01 2.495 7 3 C7 3.66 7 4.32 7 5 C2.59085217 6.10228696 -1.48382401 6.07654536 -6 6 C-6 5.34 -6 4.68 -6 4 C-4.02 3.01 -2.04 2.02 0 1 C0 0.67 0 0.34 0 0 Z " fill="#D5A21B" transform="translate(95,228)"/>
<path d="M0 0 C0.66 0.33 1.32 0.66 2 1 C-0.77079887 4.80984844 -4.62868145 5.06840752 -9 6 C-9 6.66 -9 7.32 -9 8 C-10.56116819 8.33951619 -12.12401338 8.67132544 -13.6875 9 C-14.99267578 9.2784375 -14.99267578 9.2784375 -16.32421875 9.5625 C-18.93712964 9.98972047 -21.35813038 10.07616201 -24 10 C-24 9.34 -24 8.68 -24 8 C-23.19175781 7.89042969 -22.38351563 7.78085938 -21.55078125 7.66796875 C-20.48214844 7.50941406 -19.41351563 7.35085937 -18.3125 7.1875 C-17.25675781 7.03667969 -16.20101562 6.88585937 -15.11328125 6.73046875 C-11.88268978 5.97247552 -9.81260945 4.70249162 -7 3 C-5.68 3 -4.36 3 -3 3 C-3 2.34 -3 1.68 -3 1 C-2.01 0.67 -1.02 0.34 0 0 Z " fill="#BE981F" transform="translate(126,223)"/>
<path d="M0 0 C4.49797113 1.68673918 8.72886302 3.81673892 13 6 C9.68604014 7.08784335 9.16419665 7.07262544 5.75 5.5625 C4.8425 5.046875 3.935 4.53125 3 4 C3.33 5.65 3.66 7.3 4 9 C4.66 9 5.32 9 6 9 C6.33 9.99 6.66 10.98 7 12 C5.68 11.34 4.36 10.68 3 10 C3 9.34 3 8.68 3 8 C2.34 8 1.68 8 1 8 C0.67 5.36 0.34 2.72 0 0 Z " fill="#EBCD5D" transform="translate(62,145)"/>
<path d="M0 0 C1.43836751 0.11458693 2.87570966 0.24209116 4.3125 0.375 C5.51326172 0.47941406 5.51326172 0.47941406 6.73828125 0.5859375 C9 1 9 1 12 3 C14.04705225 3.59739945 16.11233108 4.13409983 18.1875 4.625 C19.27417969 4.88539063 20.36085938 5.14578125 21.48046875 5.4140625 C22.31191406 5.60742188 23.14335937 5.80078125 24 6 C20.13342728 7.42351434 17.0768324 6.61685356 13.125 5.75 C11.93132812 5.49734375 10.73765625 5.2446875 9.5078125 4.984375 C6.05079443 4.01425412 3.14633996 2.71268658 0 1 C0 0.67 0 0.34 0 0 Z " fill="#D9B237" transform="translate(105,136)"/>
<path d="M0 0 C-2.43598808 1.31537364 -4.8736825 2.62739143 -7.3125 3.9375 C-8.00279297 4.31068359 -8.69308594 4.68386719 -9.40429688 5.06835938 C-10.07138672 5.42607422 -10.73847656 5.78378906 -11.42578125 6.15234375 C-12.03848877 6.48226318 -12.65119629 6.81218262 -13.2824707 7.15209961 C-15 8 -15 8 -18 9 C-18.66 9.66 -19.32 10.32 -20 11 C-20.66 10.34 -21.32 9.68 -22 9 C-17.97832683 6.03162219 -14.99911924 4.47610659 -10 4 C-10 3.34 -10 2.68 -10 2 C-4.10714286 -1.34821429 -4.10714286 -1.34821429 0 0 Z " fill="#B28E1E" transform="translate(158,211)"/>
<path d="M0 0 C0.66 0 1.32 0 2 0 C1.67 1.32 1.34 2.64 1 4 C-0.65 4.33 -2.3 4.66 -4 5 C-4 5.66 -4 6.32 -4 7 C-5.29009643 7.50403768 -6.58213789 8.00309926 -7.875 8.5 C-8.59429687 8.7784375 -9.31359375 9.056875 -10.0546875 9.34375 C-12 10 -12 10 -14 10 C-14 9.01 -14 8.02 -14 7 C-13.01 6.9071875 -13.01 6.9071875 -12 6.8125 C-7.66613597 5.63874516 -3.21249088 3.21249088 0 0 Z " fill="#C6A319" transform="translate(188,190)"/>
<path d="M0 0 C0 1.98 0 3.96 0 6 C-0.33 5.01 -0.66 4.02 -1 3 C-4.96 3 -8.92 3 -13 3 C-12 1 -12 1 -8.75 -0.1875 C-5.22790825 -0.95061988 -3.38319499 -1.0252106 0 0 Z " fill="#A1791A" transform="translate(144,185)"/>
<path d="M0 0 C8.30085731 -0.51345509 14.51935975 0.29278005 22 4 C19 5 19 5 16.9375 4.0625 C13.27290564 2.73700842 10.25592879 2.97920943 6.40234375 3.22265625 C3.46020408 2.94997013 2.18151409 1.92960715 0 0 Z " fill="#DEDB68" transform="translate(185,121)"/>
<path d="M0 0 C2.31 0.66 4.62 1.32 7 2 C7 2.99 7 3.98 7 5 C4.73291675 5.8655047 2.46224921 6.71759315 0.1875 7.5625 C-0.77639648 7.9327832 -0.77639648 7.9327832 -1.75976562 8.31054688 C-6.66015625 10.11328125 -6.66015625 10.11328125 -10 9 C-8.23141309 8.32739649 -6.46003984 7.66211605 -4.6875 7 C-3.70136719 6.62875 -2.71523438 6.2575 -1.69921875 5.875 C1 5 1 5 4 5 C4 4.34 4 3.68 4 3 C2.68 2.67 1.36 2.34 0 2 C0 1.34 0 0.68 0 0 Z " fill="#EEE364" transform="translate(259,158)"/>
<path d="M0 0 C2.97 1.65 5.94 3.3 9 5 C9 5.66 9 6.32 9 7 C9.66 7 10.32 7 11 7 C11 7.99 11 8.98 11 10 C9.02 9.34 7.04 8.68 5 8 C5 7.34 5 6.68 5 6 C4.360625 5.7525 3.72125 5.505 3.0625 5.25 C1 4 1 4 0 0 Z " fill="#D5AD3E" transform="translate(84,118)"/>
<path d="M0 0 C0.8971875 0.309375 0.8971875 0.309375 1.8125 0.625 C-5.12623478 4.35853242 -11.38879894 7.32521649 -19.1875 8.625 C-17.59802454 5.44604908 -14.36025284 4.82532572 -11.1875 3.625 C-10.115 3.274375 -9.0425 2.92375 -7.9375 2.5625 C-0.28002218 -0.0480038 -0.28002218 -0.0480038 0 0 Z " fill="#EABF20" transform="translate(191.1875,180.375)"/>
<path d="M0 0 C0 0.66 0 1.32 0 2 C-8.70694636 7.15967192 -17.20272795 6.38047658 -27 6 C-27 5.67 -27 5.34 -27 5 C-26.03320312 4.97421875 -25.06640625 4.9484375 -24.0703125 4.921875 C-16.68192066 4.60000446 -10.65154163 4.03866532 -3.85546875 0.83984375 C-2 0 -2 0 0 0 Z " fill="#E2C040" transform="translate(129,154)"/>
<path d="M0 0 C14.78132118 1.92710706 14.78132118 1.92710706 21 4 C18.4253958 5.70405458 17.27084786 6.03725555 14.16015625 5.609375 C13.13792969 5.32578125 12.11570312 5.0421875 11.0625 4.75 C9.53302734 4.34007812 9.53302734 4.34007812 7.97265625 3.921875 C5.24462908 3.07586395 2.63217868 2.1052242 0 1 C0 0.67 0 0.34 0 0 Z " fill="#8F7327" transform="translate(98,183)"/>
<path d="M0 0 C0.66 0.66 1.32 1.32 2 2 C1.34773438 2.31453125 0.69546875 2.6290625 0.0234375 2.953125 C-4.89655855 5.3623266 -9.5332174 7.82623341 -14 11 C-14.66 10.67 -15.32 10.34 -16 10 C-5.62642369 2.51708428 -5.62642369 2.51708428 0 0 Z " fill="#9C7514" transform="translate(118,215)"/>
<path d="M0 0 C2.31 0 4.62 0 7 0 C7 0.99 7 1.98 7 3 C8.65 3 10.3 3 12 3 C8.3558226 5.4294516 6.28758728 5.16179575 2 5 C2 4.01 2 3.02 2 2 C1.34 1.34 0.68 0.68 0 0 Z " fill="#E1BB1E" transform="translate(217,172)"/>
<path d="M0 0 C2.97 0.99 5.94 1.98 9 3 C9 3.99 9 4.98 9 6 C9.99 6 10.98 6 12 6 C12 6.66 12 7.32 12 8 C7.1725201 6.58707905 3.2837641 4.57025846 -1 2 C-0.67 1.34 -0.34 0.68 0 0 Z " fill="#C5991F" transform="translate(84,173)"/>
<path d="M0 0 C4.64973854 0.44787324 6.37027468 2.02185597 9.3125 5.5625 C10.00988281 6.38878906 10.70726562 7.21507812 11.42578125 8.06640625 C11.94527344 8.70449219 12.46476563 9.34257812 13 10 C12.67 10.66 12.34 11.32 12 12 C10.82460004 11.07347299 9.65989423 10.13336613 8.5 9.1875 C7.8503125 8.66542969 7.200625 8.14335937 6.53125 7.60546875 C5 6 5 6 5 3 C2.525 2.01 2.525 2.01 0 1 C0 0.67 0 0.34 0 0 Z " fill="#DFDE66" transform="translate(207,126)"/>
<path d="M0 0 C-2.43313372 1.03251062 -4.87056892 2.05119521 -7.3125 3.0625 C-8.34793945 3.50432617 -8.34793945 3.50432617 -9.40429688 3.95507812 C-14.66015625 6.11328125 -14.66015625 6.11328125 -18 5 C-5.333001 -1.777667 -5.333001 -1.777667 0 0 Z " fill="#DBAB13" transform="translate(178,189)"/>
<path d="M0 0 C2.97 0.495 2.97 0.495 6 1 C6 1.66 6 2.32 6 3 C7.32 3.33 8.64 3.66 10 4 C10 4.66 10 5.32 10 6 C8.02 6.33 6.04 6.66 4 7 C4.33 6.01 4.66 5.02 5 4 C4.01 3.67 3.02 3.34 2 3 C1.34 2.01 0.68 1.02 0 0 Z " fill="#FCF95C" transform="translate(253,157)"/>
<path d="M0 0 C0.433125 0.474375 0.86625 0.94875 1.3125 1.4375 C3.02309613 3.23686957 3.02309613 3.23686957 6 4 C6.33 4.99 6.66 5.98 7 7 C8.29355827 8.37195574 9.62298702 9.71182656 11 11 C6.67750434 11 5.11604454 8.85084926 2 6 C0 3 0 3 0 0 Z " fill="#DBBE45" transform="translate(64,153)"/>
<path d="M0 0 C4.45551924 1.21514161 6.95743587 2.52278385 10 6 C10.66 6.66 11.32 7.32 12 8 C9.1875 8.25 9.1875 8.25 6 8 C4.125 6.125 4.125 6.125 3 4 C3 3.34 3 2.68 3 2 C2.01 1.67 1.02 1.34 0 1 C0 0.67 0 0.34 0 0 Z " fill="#E2D95A" transform="translate(88,84)"/>
<path d="M0 0 C0.33 0.99 0.66 1.98 1 3 C-0.093125 3.12375 -1.18625 3.2475 -2.3125 3.375 C-6.07381802 3.75464801 -6.07381802 3.75464801 -9 6 C-11.1875 5.625 -11.1875 5.625 -13 5 C-9.08944645 1.69107007 -5.15517315 0 0 0 Z " fill="#D1AB22" transform="translate(212,181)"/>
<path d="M0 0 C0 0.99 0 1.98 0 3 C-4.95 2.67 -9.9 2.34 -15 2 C-15 1.67 -15 1.34 -15 1 C-10.03926578 -0.32286246 -5.08888488 -0.08893197 0 0 Z " fill="#F9D92B" transform="translate(244,167)"/>
<path d="M0 0 C-1 2 -1 2 -3.3125 3.125 C-6 4 -6 4 -10 4 C-9.67 3.01 -9.34 2.02 -9 1 C-5.8035914 -0.06546953 -3.34252724 -0.07427838 0 0 Z " fill="#DCA90A" transform="translate(154,195)"/>
<path d="M0 0 C4.12751449 0.60698743 7.3321148 2.03810791 11 4 C8.83032311 4.95465783 7.43671207 5.14401212 5.17578125 4.3984375 C3.4315257 3.64129615 1.71372869 2.82390802 0 2 C0 1.34 0 0.68 0 0 Z " fill="#F6F479" transform="translate(213,142)"/>
<path d="M0 0 C-4.455 1.485 -4.455 1.485 -9 3 C-9 3.66 -9 4.32 -9 5 C-9.99 5 -10.98 5 -12 5 C-11 2 -11 2 -9.2578125 1.015625 C-8.55398437 0.76296875 -7.85015625 0.5103125 -7.125 0.25 C-6.07699219 -0.14445313 -6.07699219 -0.14445313 -5.0078125 -0.546875 C-3 -1 -3 -1 0 0 Z " fill="#7E6520" transform="translate(96,230)"/>
<path d="M0 0 C4.24480464 -0.33292585 6.35542625 -0.43885872 9.9375 2 C10.618125 2.66 11.29875 3.32 12 4 C7.6822542 3.49202991 3.96697886 2.80317221 0 1 C0 0.67 0 0.34 0 0 Z " fill="#B38E25" transform="translate(96,181)"/>
<path d="M0 0 C2.31 0 4.62 0 7 0 C7.33 0.99 7.66 1.98 8 3 C7.34 3 6.68 3 6 3 C5.67 3.66 5.34 4.32 5 5 C4.34 4.67 3.68 4.34 3 4 C3 3.01 3 2.02 3 1 C2.01 0.67 1.02 0.34 0 0 Z " fill="#F4D73F" transform="translate(241,166)"/>
<path d="M0 0 C2.4375 0.75 2.4375 0.75 5 2 C5.8125 4.125 5.8125 4.125 6 6 C4.02 5.34 2.04 4.68 0 4 C0 2.68 0 1.36 0 0 Z " fill="#EFC647" transform="translate(83,115)"/>
<path d="M0 0 C3.94876098 0.56410871 6.75634176 1.65735794 10 4 C10.33 4.99 10.66 5.98 11 7 C7.87691494 6.39196574 5.80748338 5.37985958 3.25 3.5 C2.63640625 3.0565625 2.0228125 2.613125 1.390625 2.15625 C0.93171875 1.7746875 0.4728125 1.393125 0 1 C0 0.67 0 0.34 0 0 Z " fill="#FAD932" transform="translate(87,113)"/>
<path d="M0 0 C-3.20336822 2.83374881 -5.78087253 3.5205537 -10 4 C-10 3.01 -10 2.02 -10 1 C-6.59437148 0.22157062 -3.49234244 -0.09978121 0 0 Z " fill="#CAA722" transform="translate(184,196)"/>
<path d="M0 0 C-6.75 4 -6.75 4 -9 4 C-8 1 -8 1 -5.625 -0.25 C-3 -1 -3 -1 0 0 Z " fill="#B68F1F" transform="translate(167,206)"/>
<path d="M0 0 C0.33 0.66 0.66 1.32 1 2 C-1.3125 4.5 -1.3125 4.5 -4 7 C-4.99 7 -5.98 7 -7 7 C-4.69 4.69 -2.38 2.38 0 0 Z " fill="#90751F" transform="translate(140,199)"/>
<path d="M0 0 C0.763125 0.20625 1.52625 0.4125 2.3125 0.625 C2.3125 2.605 2.3125 4.585 2.3125 6.625 C2.003125 5.6659375 2.003125 5.6659375 1.6875 4.6875 C0.41711791 2.27574923 0.41711791 2.27574923 -2.8125 1.875 C-3.76125 1.7925 -4.71 1.71 -5.6875 1.625 C-2.6875 -0.375 -2.6875 -0.375 0 0 Z " fill="#B18110" transform="translate(141.6875,184.375)"/>
<path d="M0 0 C1.32 0.66 2.64 1.32 4 2 C3.67 2.66 3.34 3.32 3 4 C0.93359375 4.4140625 0.93359375 4.4140625 -1.5625 4.625 C-2.38878906 4.69976562 -3.21507812 4.77453125 -4.06640625 4.8515625 C-5.02353516 4.92503906 -5.02353516 4.92503906 -6 5 C-4 3 -4 3 -1.375 2.875 C-0.59125 2.91625 0.1925 2.9575 1 3 C0.67 2.01 0.34 1.02 0 0 Z " fill="#ADA442" transform="translate(220,147)"/>
<path d="M0 0 C0.99 0.33 1.98 0.66 3 1 C3.33 2.98 3.66 4.96 4 7 C3.34 7 2.68 7 2 7 C0.5393715 4.35261084 0 3.10551666 0 0 Z " fill="#F1E266" transform="translate(65,84)"/>
<path d="M0 0 C1.98 0.99 1.98 0.99 4 2 C4 2.66 4 3.32 4 4 C5.32 4.66 6.64 5.32 8 6 C5.37886292 6 3.49064888 5.68707555 1 5 C0.67 3.35 0.34 1.7 0 0 Z " fill="#DBD25B" transform="translate(71,71)"/>
</svg>
